<svg class="icon--books" width="100px" height="100px" viewBox="0 0 100 100" version="1.1" xmlns="http://www.w3.org/2000/svg" xmlns:xlink="http://www.w3.org/1999/xlink">
    <g fill="#F2F2F2" fill-rule="nonzero">
        <path d="M26.6670091,21.6674843 L26.6670091,15.00074 C26.6670091,14.5590708 26.4920098,14.1340632 26.1795048,13.8215262 C25.8669998,13.5089893 25.4419922,13.3340219 25.0002911,13.3340219 L1.66668607,13.3340219 C0.74584335,13.3340219 0,14.0798653 0,15.000708 L0,21.6674843 L26.6670091,21.6674843 Z"></path>
        <path d="M3.20003725e-05,24.9997897 L3.20003725e-05,79.9998967 L26.6670091,79.9998967 L26.6670091,24.9997897 L3.20003725e-05,24.9997897 Z M20.0002648,46.6662393 L6.66677628,46.6662393 C5.74593356,46.6662393 5.00009021,45.9203319 5.00009021,44.9994892 L5.00009021,31.6660007 C5.00009021,30.7451579 5.74593356,29.9993146 6.66677628,29.9993146 L20.0002648,29.9993146 C20.441934,29.9993146 20.8669416,30.174314 21.1794786,30.4868189 C21.4920155,30.7993239 21.6669829,31.2243315 21.6669829,31.6660327 L21.6669829,44.9995212 C21.6669829,45.4411904 21.4919835,45.866198 21.1794786,46.1787349 C20.8669736,46.4912719 20.441966,46.6662393 20.0002648,46.6662393 L20.0002648,46.6662393 Z"></path>
        <path d="M3.20003725e-05,90.0010798 L3.20003725e-05,98.3345101 C3.20003725e-05,98.7761793 0.175031371,99.2011869 0.487536343,99.5137239 C0.800041314,99.8262608 1.22504893,100.001228 1.66675007,100.001228 L25.0003551,100.001228 C25.4420242,100.001228 25.8670318,99.8262288 26.1795688,99.5137239 C26.4921058,99.2012189 26.6670731,98.7762113 26.6670731,98.3345101 L26.6670731,90.0010798 L3.20003725e-05,90.0010798 Z"></path>
        <polygon points="3.20003725e-05 83.3343355 26.6670091 83.3343355 26.6670091 86.6677077 3.20003725e-05 86.6677077"></polygon>
        <polygon points="30.0003813 83.3343355 51.6667668 83.3343355 51.6667668 86.6677077 30.0003813 86.6677077"></polygon>
        <path d="M51.6667668,6.66677628 L51.6667668,1.66671807 C51.6667668,1.22504893 51.4917675,0.800041314 51.1792625,0.487504342 C50.8667575,0.17496737 50.4417499,-5.76627138e-14 50.0000488,-5.76627138e-14 L31.6659687,-5.76627138e-14 C30.7451259,-5.76627138e-14 29.9992826,0.74584335 29.9992826,1.66668607 L29.9992826,6.66677628 L51.6667668,6.66677628 Z"></path>
        <polygon points="30.0003813 18.3330454 51.6667668 18.3330454 51.6667668 79.9998967 30.0003813 79.9998967"></polygon>
        <path d="M30.0003813,90.0010798 L30.0003813,98.3345101 C30.0003813,98.7761793 30.1753806,99.2011869 30.4878856,99.5137239 C30.8003906,99.8262608 31.2253982,100.001228 31.6670993,100.001228 L50.0011794,100.001228 C50.4428486,100.001228 50.8678562,99.8262288 51.1803932,99.5137239 C51.4929301,99.2012189 51.6678975,98.7762113 51.6678975,98.3345101 L51.6678975,90.0010798 L30.0003813,90.0010798 Z"></path>
        <polygon points="30.0003813 10.0001484 51.6667668 10.0001484 51.6667668 15.0002066 30.0003813 15.0002066"></polygon>
        <polygon points="54.9585385 34.5124338 55.8502182 37.9374337 84.0798802 30.4081727 83.1840404 26.9873329"></polygon>
        <polygon points="68.8883007 87.9050554 97.1136959 80.3799544 95.3261551 73.525688 67.1007599 81.054949"></polygon>
        <polygon points="94.484332 70.3005838 84.9217673 33.6334902 56.6921053 41.1627512 66.2589367 77.8298448"></polygon>
        <path d="M54.1169287,31.2878629 L82.342324,23.762762 L79.9506161,14.5834551 C79.7047786,13.6959461 78.7964693,13.1626386 77.9005656,13.3834411 L52.8997412,20.0501854 C52.0164029,20.2918522 51.4914048,21.1960121 51.7163674,22.0834891 L54.1169287,31.2878629 Z"></path>
        <path d="M97.9518585,83.605272 L69.7299105,91.1303729 L71.7172109,98.7512617 C71.83387,99.1804293 72.1129965,99.5471003 72.500463,99.7679348 C72.7504407,99.922102 73.0379076,100.001271 73.3337042,100.001271 C73.4795228,100.001271 73.6253413,99.984604 73.7669897,99.9512703 L98.7647607,93.284526 C99.6479911,93.0428592 100.172925,92.1386993 99.9479899,91.2512223 L97.9518585,83.605272 Z"></path>
    </g>
</svg>