<svg class="icon--clock" width="101px" height="101px" viewBox="0 0 101 101" version="1.1" xmlns="http://www.w3.org/2000/svg" xmlns:xlink="http://www.w3.org/1999/xlink">
    <g stroke="none" stroke-width="1" fill="none" fill-rule="evenodd">
        <path d="M50.5,100.239608 C22.8861058,100.239608 0.5,77.8535022 0.5,50.239608 C0.5,22.6257138 22.8861058,0.239608011 50.5,0.239608011 C78.1138942,0.239608011 100.5,22.6257138 100.5,50.239608 C100.5,77.8535022 78.1138942,100.239608 50.5,100.239608 Z M50.5,91.149889 C73.0944755,91.149889 91.410281,72.8340835 91.410281,50.239608 C91.410281,27.6451325 73.0944755,9.32932698 50.5,9.32932698 C27.9055245,9.32932698 9.58971897,27.6451325 9.58971897,50.239608 C9.58971897,72.8340835 27.9055245,91.149889 50.5,91.149889 Z M50.5,51.9742039 L66.1691831,59.8110865 C68.4149939,60.93181 69.3269113,63.6634167 68.2019331,65.9092275 C67.0812096,68.1550383 64.3496029,69.0669557 62.1037921,67.9419775 L43.9199904,58.8522586 C42.3815456,58.0809307 41.4099537,56.5084813 41.4099537,54.7867585 L41.4099537,27.5132378 C41.4099537,25.0032011 43.4427038,22.9661964 45.9527404,22.9661964 C48.4627771,22.9661964 50.4997818,25.0032011 50.4997818,27.5132378 L50.5,51.9742039 Z" fill="#FFFFFF" fill-rule="nonzero"></path>
    </g>
</svg>