<svg class="icon--play" width="101px" height="101px" viewBox="0 0 101 101" version="1.1" xmlns="http://www.w3.org/2000/svg" xmlns:xlink="http://www.w3.org/1999/xlink">
    <g stroke="none" stroke-width="1" fill="none" fill-rule="evenodd">
        <path d="M0.500339271,50.1646119 C0.410839394,22.3982922 23.7383428,-0.411076461 51.8789319,0.326321212 C77.8785523,1.02497054 100.60822,22.4802253 100.499612,50.5353091 C100.432817,68.3837301 90.8431629,84.8432855 75.3395893,93.7070453 C59.8358157,102.574802 40.778094,102.504559 25.3403194,93.5236051 C9.9025448,84.542641 0.434683046,68.0134425 0.500339271,50.1640224 L0.500339271,50.1646119 Z M74.3786034,51.0428046 L74.3786034,51.0467084 C73.7301728,50.1411981 72.964524,49.3254144 72.1091365,48.6150946 C62.1092825,42.6863374 52.074429,36.8047416 42.007576,30.969508 C39.4998126,29.5019068 37.4998418,30.5323651 37.4998418,33.4011218 C37.3982833,45.2194683 37.3982833,57.033818 37.4998418,68.8521644 C37.4998418,71.7404052 39.4998126,72.8488998 41.9997761,71.3812986 C52.147628,65.5188872 62.2534804,59.5899301 72.3193334,53.594827 C73.0576026,53.1225528 73.4990162,52.1038449 74.3896032,51.0461089 L74.3786034,51.0428046 Z" fill="#FFFFFF" fill-rule="nonzero"></path>
    </g>
</svg>